<?xml version="1.0" standalone="no"?>
<!DOCTYPE svg PUBLIC "-//W3C//DTD SVG 20010904//EN"
 "http://www.w3.org/TR/2001/REC-SVG-20010904/DTD/svg10.dtd">
<svg version="1.0" xmlns="http://www.w3.org/2000/svg"
 width="800.000000pt" height="500.000000pt" viewBox="0 0 800.000000 500.000000"
 preserveAspectRatio="xMidYMid meet">

<g transform="translate(0.000000,500.000000) scale(0.100000,-0.100000)"
fill="#000000" stroke="none">
<path d="M3315 3208 c-96 -34 -126 -148 -64 -241 17 -26 32 -47 33 -47 2 0 3
21 4 46 0 54 6 62 33 46 25 -16 39 -8 39 22 0 33 16 43 85 53 53 7 61 11 69
36 14 39 1 55 -64 77 -62 22 -91 23 -135 8z"/>
<path d="M4536 3199 c-23 -18 -27 -28 -25 -68 3 -66 10 -71 84 -64 56 5 65 3
86 -18 13 -13 32 -22 41 -21 14 3 18 -4 18 -27 0 -16 5 -33 10 -36 17 -10 42
65 43 127 0 82 -20 102 -119 117 -100 15 -107 14 -138 -10z"/>
<path d="M3255 2806 c-11 -7 -44 -21 -73 -30 -29 -10 -68 -33 -87 -51 -32 -29
-35 -37 -35 -86 1 -30 7 -81 16 -114 25 -101 28 -356 7 -539 l-19 -158 35 -29
35 -28 8 -223 c13 -344 28 -645 43 -852 8 -104 13 -191 11 -195 -2 -3 -581 -6
-1285 -6 -705 0 -1281 -3 -1281 -7 0 -5 1557 -8 3461 -8 1903 0 3458 4 3455 8
-3 5 -543 8 -1201 8 -657 -1 -1195 -1 -1195 0 0 7 48 95 62 115 16 21 18 31
10 46 -23 41 -37 46 -81 23 -40 -20 -41 -22 -41 -70 0 -39 -5 -54 -22 -70 -13
-12 -29 -26 -36 -33 -9 -9 -62 -11 -200 -9 l-187 3 3 39 c4 39 3 40 -28 40
-17 0 -40 4 -50 10 -14 8 -21 5 -34 -14 -8 -13 -37 -32 -63 -41 -26 -9 -56
-21 -65 -26 -30 -16 -456 -11 -511 6 -100 30 -99 29 -125 189 -42 263 -57 426
-83 898 -7 119 -9 223 -6 232 4 10 18 16 40 16 60 0 71 17 64 96 -6 65 -5 70
16 79 34 15 34 52 0 67 -15 7 -29 13 -31 14 -1 0 -13 70 -27 155 -40 260 -84
419 -129 468 -19 21 -91 58 -145 76 -19 6 -21 3 -16 -17 2 -13 25 -111 49
-218 43 -186 72 -367 62 -377 -2 -3 -13 -2 -24 1 -17 6 -21 19 -26 94 -9 114
-30 236 -60 347 -13 49 -22 93 -20 96 2 4 -3 9 -11 13 -21 8 -26 -6 -15 -45
12 -46 18 -440 7 -436 -19 6 -57 124 -77 239 -29 169 -62 318 -69 318 -4 0
-15 -6 -26 -14z m147 -727 c18 -10 20 -17 14 -70 -6 -48 -3 -65 14 -99 11 -22
24 -40 29 -40 5 0 21 14 35 30 18 22 27 48 32 91 5 47 10 59 21 55 8 -4 23 -6
33 -6 15 0 19 -15 29 -92 7 -50 8 -95 3 -100 -10 -10 -95 -25 -196 -33 l-78
-6 5 33 c3 18 11 81 18 141 7 59 15 107 17 107 2 0 13 -5 24 -11z m78 -1022
c31 -176 129 -485 166 -521 8 -8 14 -19 14 -25 0 -14 -311 -20 -317 -6 -3 9
24 211 98 741 2 12 13 -45 39 -189z"/>
<path d="M4719 2771 c-81 -58 -126 -123 -166 -239 -23 -68 -27 -96 -31 -246
-5 -191 6 -547 18 -566 13 -21 165 -25 238 -6 35 9 65 16 66 16 2 0 9 -41 16
-92 14 -103 36 -138 88 -138 60 0 388 51 419 65 42 19 47 44 33 142 -20 142
-42 163 -146 144 -75 -14 -72 -15 -76 12 -2 15 -10 23 -28 24 -14 1 -18 -1 -8
-3 15 -5 33 -33 25 -40 -2 -2 -28 -8 -57 -14 -63 -12 -82 -2 -61 31 10 18 10
20 -1 17 -7 -3 -15 -15 -17 -29 -4 -29 -17 -39 -52 -39 l-26 0 -22 218 c-12
119 -25 226 -27 237 -5 18 -4 18 15 -3 11 -12 40 -85 66 -162 l47 -140 31 0
c67 0 69 10 41 190 -31 195 -227 603 -313 649 -15 8 -29 3 -72 -28z"/>
<path d="M4554 2728 c-52 -49 -124 -171 -124 -210 0 -19 -71 -155 -126 -240
-43 -67 -43 -68 -179 -134 -102 -51 -135 -71 -135 -86 0 -10 7 -21 16 -25 24
-9 246 24 313 47 30 10 57 18 58 16 1 -1 -2 -31 -7 -66 -5 -36 -12 -113 -16
-171 -7 -119 -13 -110 69 -124 l39 -6 -6 68 c-16 177 -17 231 -7 427 16 324
41 427 122 508 64 64 52 61 -17 -4z"/>
<path d="M2131 1691 c-13 -23 -7 -26 77 -36 49 -7 54 -5 50 11 -2 13 -15 21
-43 25 -22 3 -48 9 -57 13 -11 5 -20 1 -27 -13z"/>
</g>
</svg>
